<svg xmlns="http://www.w3.org/2000/svg" viewBox="0 0 160 40" width="160" height="40" shape-rendering="crispEdges">
  <!-- Kiwi Icon Mark -->
  <g transform="translate(4, 4) scale(2)">
    <rect x="5" y="2" width="5" height="1" fill="#88BC38"/>
    <rect x="3" y="3" width="8" height="1" fill="#93C645"/>
    <rect x="2" y="4" width="9" height="1" fill="#93C645"/>
    <rect x="2" y="5" width="9" height="1" fill="#93C645"/>
    <rect x="1" y="6" width="10" height="1" fill="#93C645"/>
    <rect x="1" y="7" width="10" height="1" fill="#93C645"/>
    <rect x="2" y="8" width="9" height="1" fill="#88BC38"/>
    <rect x="2" y="9" width="9" height="1" fill="#78A832"/>
    <rect x="3" y="10" width="7" height="1" fill="#6A962A"/>
    <rect x="4" y="11" width="5" height="1" fill="#5A8222"/>
    <rect x="7" y="4" width="2" height="2" fill="#111816"/>
    <rect x="7" y="4" width="1" height="1" fill="#FFFFFF"/>
    <rect x="11" y="5" width="3" height="2" fill="#FFAA28"/>
    <rect x="14" y="6" width="1" height="1" fill="#E89115"/>
    <rect x="4" y="12" width="2" height="2" fill="#FFAA28"/>
    <rect x="3" y="13" width="3" height="1" fill="#FFAA28"/>
    <rect x="8" y="12" width="2" height="2" fill="#FFAA28"/>
    <rect x="7" y="13" width="3" height="1" fill="#FFAA28"/>
  </g>
  <!-- Wordmark "kiwi" in JetBrains Mono style -->
  <text x="44" y="27" font-family="'JetBrains Mono', 'Fira Code', monospace" font-size="22" font-weight="700" fill="#FFFFFF" letter-spacing="-0.5">kiwi</text>
</svg>
