<svg xmlns="http://www.w3.org/2000/svg" viewBox="0 0 16 16" width="64" height="64" shape-rendering="crispEdges">
  <!-- Kiwi Chunky Chibi - Vibing -->
  <rect x="5" y="2" width="5" height="1" fill="#88BC38"/>
  <rect x="3" y="3" width="8" height="1" fill="#93C645"/>
  <rect x="2" y="4" width="9" height="1" fill="#93C645"/>
  <rect x="2" y="5" width="9" height="1" fill="#93C645"/>
  <rect x="1" y="6" width="10" height="1" fill="#93C645"/>
  <rect x="1" y="7" width="10" height="1" fill="#93C645"/>
  <rect x="2" y="8" width="9" height="1" fill="#88BC38"/>
  <rect x="2" y="9" width="9" height="1" fill="#78A832"/>
  <rect x="3" y="10" width="7" height="1" fill="#6A962A"/>
  <rect x="4" y="11" width="5" height="1" fill="#5A8222"/>
  <rect x="11" y="5" width="3" height="2" fill="#FFAA28"/>
  <rect x="14" y="6" width="1" height="1" fill="#E89115"/>
  <rect x="4" y="12" width="2" height="2" fill="#FFAA28"/>
  <rect x="3" y="13" width="3" height="1" fill="#FFAA28"/>
  <rect x="8" y="12" width="2" height="2" fill="#FFAA28"/>
  <rect x="7" y="13" width="3" height="1" fill="#FFAA28"/>
  <!-- Headphones -->
  <rect x="4" y="1" width="5" height="1" fill="#FF4D6D"/>
  <rect x="3" y="2" width="1" height="3" fill="#FF4D6D"/>
  <rect x="9" y="2" width="1" height="3" fill="#FF4D6D"/>
  <rect x="2" y="4" width="1" height="3" fill="#00E5FF"/>
  <rect x="9" y="4" width="1" height="3" fill="#00E5FF"/>
  <!-- Sunglasses -->
  <rect x="6" y="4" width="4" height="2" fill="#090D0B"/>
  <rect x="6" y="4" width="1" height="1" fill="#00E5FF"/>
  <rect x="8" y="4" width="1" height="1" fill="#00E5FF"/>
</svg>
