<svg xmlns="http://www.w3.org/2000/svg" viewBox="0 0 500 500" width="500" height="500" shape-rendering="crispEdges">
  <defs>
    <radialGradient id="lightAvatarGlow" cx="50%" cy="50%" r="50%">
      <stop offset="0%" stop-color="#2B5F1B" stop-opacity="0.12"/>
      <stop offset="70%" stop-color="#2B5F1B" stop-opacity="0.03"/>
      <stop offset="100%" stop-color="#F7F6F0" stop-opacity="0"/>
    </radialGradient>
  </defs>

  <!-- Light Paper Background Canvas -->
  <rect width="500" height="500" fill="#F7F6F0"/>
  
  <!-- Ambient Center Glow -->
  <circle cx="250" cy="250" r="230" fill="url(#lightAvatarGlow)"/>

  <!-- Centered 16x16 Chunky Chibi Scaled 20x (320x320 at translate 90, 90) -->
  <g transform="translate(90, 90) scale(20)">
    <!-- Body Greens -->
    <rect x="5" y="2" width="5" height="1" fill="#88BC38"/>
    <rect x="3" y="3" width="8" height="1" fill="#93C645"/>
    <rect x="2" y="4" width="9" height="1" fill="#93C645"/>
    <rect x="2" y="5" width="9" height="1" fill="#93C645"/>
    <rect x="1" y="6" width="10" height="1" fill="#93C645"/>
    <rect x="1" y="7" width="10" height="1" fill="#93C645"/>
    <rect x="2" y="8" width="9" height="1" fill="#88BC38"/>
    <rect x="2" y="9" width="9" height="1" fill="#78A832"/>
    <rect x="3" y="10" width="7" height="1" fill="#6A962A"/>
    <rect x="4" y="11" width="5" height="1" fill="#5A8222"/>

    <!-- Eye -->
    <rect x="7" y="4" width="2" height="2" fill="#111816"/>
    <rect x="7" y="4" width="1" height="1" fill="#FFFFFF"/>

    <!-- Chunky Beak -->
    <rect x="11" y="5" width="3" height="2" fill="#FFAA28"/>
    <rect x="14" y="6" width="1" height="1" fill="#E89115"/>

    <!-- Chubby Feet -->
    <rect x="4" y="12" width="2" height="2" fill="#FFAA28"/>
    <rect x="3" y="13" width="3" height="1" fill="#FFAA28"/>
    <rect x="8" y="12" width="2" height="2" fill="#FFAA28"/>
    <rect x="7" y="13" width="3" height="1" fill="#FFAA28"/>
  </g>

  <!-- Outer Squircle Ring Accent -->
  <rect x="8" y="8" width="484" height="484" rx="96" fill="none" stroke="#2B5F1B" stroke-width="2" stroke-opacity="0.2"/>
</svg>
